<svg width="311" height="201" viewBox="0 0 311 201" fill="none" xmlns="http://www.w3.org/2000/svg">
<path opacity="0.7" fill-rule="evenodd" clip-rule="evenodd" d="M45.077 11.1438C26.3354 11.1438 11.1417 26.342 11.1417 45.0879C11.1417 63.8343 26.3359 79.032 45.077 79.032C54.1999 79.032 62.4811 75.4257 68.579 69.5668L70.8444 71.8328V81.5447H87.8121V73.0818L91.6495 69.2589C97.776 75.2977 106.179 79.0319 115.46 79.0319C134.201 79.0319 149.395 63.8337 149.395 45.0878C149.395 26.3414 134.201 11.1437 115.46 11.1437C96.7182 11.1437 81.5244 26.3419 81.5244 45.0878C81.5244 47.6826 81.8208 50.1978 82.372 52.6257H78.1648C78.7161 50.1979 79.0125 47.6825 79.0125 45.0878C79.0125 26.3414 63.8182 11.1437 45.0772 11.1437L45.077 11.1438ZM24.9654 82.7938C19.3952 82.7938 14.9173 87.2882 14.9173 92.8598V153.825C14.9173 159.397 19.3951 163.876 24.9654 163.876H135.571C141.141 163.876 145.619 159.397 145.619 153.825V92.8598C145.619 87.2881 141.142 82.7938 135.571 82.7938H24.9654V82.7938ZM199.036 85.9385V160.731H212.86V85.9385H199.036V85.9385ZM183.964 95.049V151.624H197.788V95.049H183.964ZM147.517 102.911V143.777H182.068V102.911H147.517ZM36.2795 165.144V180.852H125.527V165.144H36.2795V165.144Z" fill="#4CA4F5"/>
<path d="M235.713 140V106.976H247.185L253.761 126.56H254.097L260.673 106.976H272.097V140H264.081V118.544H263.745L256.593 140H250.977L243.873 118.544H243.489V140H235.713ZM281.572 140V106.976H293.14C296.084 106.976 298.484 107.136 300.34 107.456C302.196 107.744 303.652 108.256 304.708 108.992C305.764 109.696 306.516 110.688 306.964 111.968C307.444 113.216 307.748 114.784 307.876 116.672C308.004 118.56 308.068 120.832 308.068 123.488C308.068 126.144 308.004 128.416 307.876 130.304C307.748 132.192 307.444 133.776 306.964 135.056C306.516 136.304 305.764 137.296 304.708 138.032C303.652 138.736 302.196 139.248 300.34 139.568C298.484 139.856 296.084 140 293.14 140H281.572ZM289.924 133.568H292.948C294.26 133.568 295.332 133.536 296.164 133.472C296.996 133.376 297.652 133.184 298.132 132.896C298.644 132.576 298.996 132.064 299.188 131.36C299.412 130.624 299.54 129.632 299.572 128.384C299.636 127.104 299.668 125.472 299.668 123.488C299.668 121.504 299.636 119.888 299.572 118.64C299.54 117.36 299.412 116.368 299.188 115.664C298.964 114.928 298.612 114.4 298.132 114.08C297.652 113.76 296.996 113.568 296.164 113.504C295.332 113.44 294.26 113.408 292.948 113.408H289.924V133.568Z" fill="#4CA4F5" fill-opacity="0.72"/>
</svg>
